<svg xmlns="http://www.w3.org/2000/svg" viewBox="0 0 64 64" role="img" aria-label="Jurassic English favicon">
  <defs>
    <linearGradient id="bg" x1="0" y1="0" x2="1" y2="1">
      <stop offset="0%" stop-color="#151a1d"/>
      <stop offset="100%" stop-color="#232a2d"/>
    </linearGradient>
    <linearGradient id="stone" x1="0" y1="0" x2="1" y2="1">
      <stop offset="0%" stop-color="#d1b38a"/>
      <stop offset="55%" stop-color="#a7865f"/>
      <stop offset="100%" stop-color="#7b6144"/>
    </linearGradient>
    <linearGradient id="gold" x1="0" y1="0" x2="0" y2="1">
      <stop offset="0%" stop-color="#f5dc96"/>
      <stop offset="55%" stop-color="#d2a94f"/>
      <stop offset="100%" stop-color="#9a6e26"/>
    </linearGradient>
    <filter id="shadow" x="-20%" y="-20%" width="140%" height="140%">
      <feDropShadow dx="0" dy="1.5" stdDeviation="1.6" flood-color="#000000" flood-opacity="0.32"/>
    </filter>
  </defs>
  <rect width="64" height="64" rx="14" fill="url(#bg)"/>
  <circle cx="32" cy="27" r="18.5" fill="none" stroke="url(#stone)" stroke-width="5.5" opacity="0.98"/>
  <circle cx="32" cy="27" r="14.4" fill="#120f0c" opacity="0.48"/>
  <path d="M25.5 16h11.8c8.1 0 13.4 4.5 13.4 11.2 0 6.1-4.1 10-10.1 11l7.2 9.8H38l-6.2-9h-2.5v9H25.5V16zm11.1 16c3.2 0 5-1.6 5-4.2 0-2.7-1.8-4.1-5.1-4.1h-7.2V32h7.3z" fill="#24170d" opacity="0.45" transform="translate(-6.8 0)"/>
  <path d="M24.3 15h11.8c8.1 0 13.4 4.5 13.4 11.2 0 6.1-4.1 10-10.1 11l7.2 9.8H36.8l-6.2-9h-2.5v9h-3.8V15zm11.1 16c3.2 0 5-1.6 5-4.2 0-2.7-1.8-4.1-5.1-4.1h-7.2V31h7.3z" fill="url(#gold)" filter="url(#shadow)" transform="translate(-6.8 0)"/>
  <path d="M22 47h20" stroke="#f3cb73" stroke-width="1.6" stroke-linecap="round" opacity="0.26"/>
</svg>
